<svg version="1.0" xmlns="http://www.w3.org/2000/svg" width="346.667" height="346.667" viewBox="0 0 260 260"><path d="M84 107.5V166h34V49H84v58.5zm53 0V166h12l.2-38.1.3-38.1 11 37.8 11 37.9 10.1.3 10 .3 10.5-37.5 10.4-37.5.3 37.4.2 37.5h34V49h-35.8l-1.1 3.2c-.5 1.8-4.7 16.6-9.2 32.8-4.5 16.2-8.5 29.8-8.8 30.2-.4.4-4.9-14.3-10.1-32.7L172.6 49H137v58.5zM26.4 145.2c-.3.4.4.8 1.5.8 4.3 0 4.7 1.7 4.6 20.7-.1 19.1-.6 21.3-4.8 21.3-1.1 0-1.7.3-1.4.6.9.9 18.7 1.1 18.7.2 0-.3-1.3-1.1-3-1.7l-3-1v-18.4l2.2 1.9c1.2 1 5.3 5 9.1 8.9l6.9 6.9-2.2 1.8c-2.5 2-2.8 1.9 7 1.9 10.9 0 12-.1 12-1.2 0-.5-.3-.8-.8-.5-1.8 1.1-7.5-2.9-17.1-12.3-11.8-11.5-11.7-9.5-1.1-19.9 3.6-3.5 8.3-7.3 10.5-8.3 4.6-2.1 4.6-2.1-5.7-2.3-7.5-.1-10 .6-5.8 1.7 1.1.3 2 1 2 1.7 0 1.4-12.6 14.7-15.2 16.1-1.7.9-1.8.3-1.8-7.7v-8.6l3-1.1c1.7-.6 3-1.4 3-1.7 0-.8-18.1-.7-18.6.2z"/></svg>